PathFileType	4	(X/Y/Z)	C:/Users/beibeiliu/ov580/test_trc/capture2\sequence.31_training_dense_left.trc
DataRate	CameraRate	NumFrames	NumMarkers	Units	OrigDataRate	OrigDataStartFrame	OrigNumFrames
120	120	16	19	mm	120	1	400
Frame#	Time	ThumbCMC			ThumbMCP			ThumbIP			ThumbTip			IndexMCP			IndexPIP			IndexTip			MiddleMCP			MiddlePIP			MiddleTip			RingMCP			RingPIP			RingTip			PinkyMCP			PinkyPIP			PinkyTip			BackHand1			BackHand2			BackHand3	
		X0	Y0	Z0	X1	Y1	Z1	X2	Y2	Z2	X3	Y3	Z3	X4	Y4	Z4	X5	Y5	Z5	X6	Y6	Z6	X7	Y7	Z7	X8	Y8	Z8	X9	Y9	Z9	X10	Y10	Z10	X11	Y11	Z11	X12	Y12	Z12	X13	Y13	Z13	X14	Y14	Z14	X15	Y15	Z15	X16	Y16	Z16	X17	Y17	Z17	X18	Y18	Z18	
0	0	-105.456	49.7709	24.8271	-89.0702	37.4176	9.4415	-66.5126	34.1724	-6.53959	-48.8311	30.2538	-23.1497	-105.34	59.5247	-50.9167	-96.919	56.4585	-73.6511	-90.7817	58.974	-102.791	-124.843	64.9433	-62.703	-123.564	63.5584	-88.6364	-122.861	62.4158	-117.217	-145.374	64.6801	-63.869	-147.136	64.0452	-83.8132	-148.101	64.1395	-110.052	-173.366	62.5527	-53.9525	-177.26	60.2017	-70.6569	-179.553	67.3437	-94.3145	-151.518	78.0646	-15.6746	-157.451	82.6916	18.3174	-124.512	75.184	5.21266	
1	0.00833333	-106.521	49.9233	22.5269	-87.5149	38.6785	8.73999	-71.0203	34.1462	-8.99193	-49.7664	29.5126	-23.4103	-104.849	60.6614	-52.2704	-96.7833	58.6298	-77.7698	-91.8785	59.7466	-103.876	-123.177	66.0956	-64.9114	-122.231	64.8032	-85.8875	-122.195	64.2755	-117.135	-149.248	66.9436	-62.5796	-145.658	64.1644	-84.1365	-146.126	66.6087	-114.555	-170.367	62.479	-50.1644	-177.16	62.1989	-75.7752	-181.081	70.0662	-92.392	-154.175	78.5376	-12.4274	-155.546	83.9655	15.6507	-123.331	74.6675	3.80688	
2	0.0166667	-106.898	49.6512	24.5676	-89.7341	38.507	10.8837	-66.3799	33.5465	-10.3915	-53.3824	29.5164	-20.9424	-98.533	59.5902	-54.3255	-96.5997	58.4013	-75.4029	-87.9758	59.1907	-98.7936	-125.038	67.2631	-61.8474	-121.581	64.8556	-86.8878	-118.305	64.4913	-114.668	-143.658	66.2086	-59.911	-144.559	64.6369	-88.592	-146.032	66.7988	-113.71	-170.697	64.3111	-51.8292	-176.338	62.0524	-73.6355	-179.025	68.3598	-93.4148	-153.853	79.7966	-13.1908	-154.842	82.6098	15.5242	-124.897	75.3368	6.42916	
3	0.025	-102.17	50.0703	20.6713	-88.6262	38.753	7.68902	-68.1026	33.8415	-9.42432	-52.5385	29.4585	-19.2437	-100.747	60.1258	-54.4309	-91.0656	58.2808	-77.7268	-92.8206	59.8234	-99.1096	-122.53	66.4583	-60.3691	-121.177	64.936	-89.1733	-120.587	64.7416	-115.913	-142.266	66.3492	-62.5904	-144.744	65.0576	-87.4968	-143.45	65.8777	-108.853	-165.911	62.4769	-50.3907	-171.094	62.3696	-73.3515	-178.161	70.7911	-92.6053	-151.428	78.0108	-15.8794	-157.798	83.7074	13.4622	-122.353	75.3419	3.60794	
4	0.0333333	-107.135	50.3143	23.0619	-86.724	38.8755	6.23503	-65.8032	33.9355	-7.07972	-49.0547	29.6646	-19.4677	-98.7015	60.3237	-50.7958	-93.7053	58.7784	-73.4542	-88.2707	59.9026	-97.827	-119.414	67.2932	-65.7838	-118.339	63.8173	-91.3792	-118.258	64.2253	-114.365	-147.193	66.3514	-62.5153	-143.198	65.1672	-89.0295	-144.984	65.5003	-114.09	-171.271	63.1303	-53.1226	-170.243	61.1241	-72.3733	-178.568	70.4936	-93.2713	-152.098	79.5863	-15.6943	-152.169	82.8727	12.8492	-123.454	74.7537	3.18705	
5	0.0416667	-106.001	50.2036	19.0268	-88.2258	39.1893	6.63911	-67.1138	34.4983	-11.5486	-48.4483	29.7264	-20.4348	-98.616	59.4839	-49.7365	-95.9458	58.3065	-78.2841	-89.2903	59.056	-98.2177	-124.209	66.4379	-65.5465	-119.775	64.0221	-88.8959	-121.692	63.5669	-116.243	-148.013	66.0376	-62.8391	-146.644	64.7984	-89.3896	-147.006	64.8545	-111.543	-169.149	63.266	-52.6764	-170.979	60.7864	-70.7098	-179.821	67.9155	-93.5912	-150.085	78.2507	-11.8906	-155.618	82.1705	14.1906	-121.06	73.8962	4.93037	
6	0.05	-103.74	50.1062	20.0251	-85.7909	38.6506	6.76376	-69.9043	32.74	-7.70966	-51.5367	29.7807	-21.0288	-101.561	59.9007	-55.5902	-93.7336	56.538	-73.6383	-91.7731	58.6789	-99.1089	-125.076	66.2754	-66.1424	-120.018	63.4016	-86.6168	-119.338	63.7249	-117.816	-143.625	64.7818	-60.0364	-145.652	63.7445	-86.3305	-142.402	64.9549	-114.791	-171.564	62.8773	-52.8631	-173.972	61.7381	-76.1527	-179.635	68.6567	-95.2491	-149.715	75.6306	-11.3145	-157.456	82.3636	15.5316	-124.191	76.0363	5.52927	
7	0.0583333	-105.048	50.4954	24.8501	-87.3876	38.5215	9.69643	-64.9062	34.8803	-9.64178	-48.6192	30.7652	-19.0573	-100.903	60.0648	-53.843	-92.4652	56.3674	-78.1861	-92.9974	58.7685	-99.5115	-123.563	65.1452	-65.4588	-121.227	62.4744	-87.6263	-116.121	61.0416	-119.995	-143.432	64.4277	-61.1019	-148.171	63.1905	-87.0235	-145.816	63.0907	-111.517	-171.107	62.9621	-55.0458	-172.759	60.169	-72.3881	-179.122	67.6071	-97.9806	-155.145	76.4949	-12.192	-157.332	81.4088	13.8069	-121.291	75.7129	5.20862	
8	0.0666667	-104.947	50.3532	21.853	-87.1822	39.4722	6.60954	-69.336	35.5676	-9.93379	-48.5715	32.5529	-23.8864	-101.351	59.8258	-51.7516	-93.5724	57.0304	-79.2145	-87.1618	57.0945	-103.132	-123.304	65.0833	-62.2241	-123.05	62.4478	-91.6804	-118.735	60.1913	-117.894	-145.229	64.5085	-63.2544	-147.529	62.6534	-86.6217	-142.267	61.5989	-113.96	-171.624	61.5703	-50.6327	-172.764	59.3067	-71.4285	-179.968	66.5553	-95.9059	-152.577	75.1629	-13.6969	-158.857	81.0759	16.2948	-124.018	74.068	5.62669	
9	0.075	-107.265	51.7814	22.8387	-83.4054	41.3343	8.58505	-64.998	38.3867	-6.25503	-51.6365	33.7483	-21.5501	-100.175	58.9646	-53.1234	-96.9469	56.7683	-75.2697	-91.2884	57.7048	-101.149	-121.62	64.1233	-64.6917	-119.012	61.0224	-88.9545	-117.829	58.4985	-116.291	-142.116	63.1297	-64.1318	-148.702	61.6521	-85.264	-144.52	59.3504	-112.609	-167.303	58.8593	-50.0378	-174.289	57.4565	-74.2754	-178.595	62.5949	-95.6296	-155.772	75.5217	-14.0874	-158.268	81.0765	11.725	-123.597	74.8289	5.98101	
10	0.0833333	-104.419	54.8289	21.1892	-85.1581	44.8485	8.32284	-65.3383	41.6647	-9.00821	-46.9427	39.6363	-21.6431	-102.709	59.2506	-54.9562	-94.2781	56.0324	-76.0043	-91.7408	56.3524	-103.854	-123.357	63.2193	-66.7402	-120.657	59.0217	-88.1454	-122.009	57.0092	-116.605	-149.41	60.7491	-63.0665	-148.604	58.6594	-85.4737	-144.189	57.5705	-113.668	-167.761	55.7953	-50.4096	-173.71	54.2278	-73.3755	-179.142	58.0202	-94.6797	-156.688	74.2319	-14.0512	-158.802	78.9496	10.5896	-126.273	76.7076	3.7691	
11	0.0916667	-107.842	56.2992	23.0204	-82.2406	49.3805	10.7388	-63.1526	47.6624	-7.05637	-49.7265	44.7816	-22.3096	-101.535	60.1607	-55.2823	-94.1443	56.5602	-78.6912	-93.0972	56.0507	-100.577	-124.91	61.5567	-64.1251	-123.907	57.3987	-90.5888	-121.488	54.4684	-119.942	-148.732	57.6207	-60.8801	-146.002	54.3559	-84.3675	-147.489	53.2629	-110.141	-166.7	52.7024	-55.0725	-171.708	48.5843	-70.8845	-182.147	52.9166	-95.6883	-157.187	73.4074	-16.4579	-162.747	78.9887	11.4825	-124.506	75.1066	2.2985	
12	0.1	-107.063	62.0541	17.9882	-86.2204	53.5859	6.73336	-62.2991	54.7022	-8.29208	-46.3397	55.0584	-21.5137	-101.573	61.8565	-57.0279	-93.4066	58.0107	-78.0223	-92.9611	56.0989	-99.8805	-124.407	60.0935	-66.3503	-124.797	54.1308	-92.1727	-124.855	50.6347	-116.319	-150.776	54.2186	-62.5206	-145.346	50.0317	-87.1667	-147.334	47.0542	-111.298	-170.18	46.3808	-49.8397	-172.949	41.6696	-69.2374	-180.275	45.0033	-95.805	-154.329	68.8871	-17.2153	-162.38	77.0093	13.5492	-128.985	77.0751	3.08807	
13	0.108333	-106.113	66.2278	21.6148	-82.1309	62.0608	5.89895	-62.8668	63.5856	-12.1673	-46.6316	63.6358	-25.1609	-107.689	62.9368	-55.2539	-98.5086	59.5093	-76.7062	-94.3277	55.7255	-104.506	-127.762	59.1941	-68.4187	-124.496	52.227	-91.549	-123.622	46.7741	-115.621	-148.39	51.12	-63.7294	-148.151	45.4781	-83.1342	-146.832	41.5786	-109.053	-166.412	42.3686	-53.1307	-172.595	34.2329	-73.356	-177.607	35.4868	-94.4416	-156.809	66.093	-17.1153	-164.019	76.088	10.5823	-132.036	81.3428	3.52144	
14	0.116667	-105.753	72.0744	20.0275	-84.806	67.5891	7.46554	-64.73	70.0926	-11.4855	-50.9037	70.7422	-27.2015	-108.587	63.4547	-58.8701	-100.909	58.6332	-79.2825	-95.8141	53.7792	-104.3	-127.836	57.6947	-65.0468	-124.303	49.7337	-89.8512	-124.445	40.1144	-120.411	-147.919	47.6059	-62.157	-147.582	40.7808	-84.9592	-144.722	35.2494	-107.801	-169.016	35.2734	-51.5601	-170.913	28.4784	-67.3024	-178.174	25.9372	-94.9	-162.519	63.7171	-14.9369	-164.222	71.0491	10.7678	-135.125	80.2274	0.0369413	
15	0.125	-107.771	75.0835	18.3249	-86.6386	72.3121	2.46307	-66.8741	77.4433	-18.5207	-52.8786	78.531	-27.826	-108.716	65.273	-58.124	-98.732	60.2168	-80.2258	-97.7475	51.5982	-108.039	-132.312	55.0869	-64.9058	-124.079	46.9232	-92.9406	-122.987	37.2416	-116.731	-149.53	43.4962	-60.4568	-145.676	35.8363	-82.8024	-144.902	27.2705	-108.208	-168.05	29.8652	-49.0835	-166.864	22.4529	-68.0237	-171.855	17.1724	-93.2292	-160.447	59.7383	-17.2102	-166.819	68.7051	11.0194	-136.412	81.9805	-3.70636	
